<svg width="1066" height="300" viewBox="0 0 1066 300" fill="none" xmlns="http://www.w3.org/2000/svg">
<path d="M289.735 70.7148C273.943 76.8451 256.563 94.1653 251.075 115.905C244.127 143.451 273.041 155.1 275.412 151.28C278.203 146.792 270.231 145.274 268.589 130.982C266.468 112.524 275.726 91.8966 287.379 82.8471C289.545 81.1665 289.441 83.5066 289.441 87.8344L288.98 179.567C288.98 199.192 288.106 205.39 286.535 211.512C284.944 217.717 282.386 221.911 284.325 223.525C286.491 225.332 295.739 221.034 301.091 214.108C307.511 205.803 309.756 195.828 310.161 184.995C310.648 171.936 310.629 151.215 310.648 139.395L310.453 77.7305C310.356 73.0504 296.35 68.1398 289.741 70.7058M850.847 162.55C850.338 172.752 847.902 180.726 844.878 186.351C839.024 197.24 826.877 200.621 821.719 184.969C818.909 176.436 818.777 162.186 820.798 150.278C822.845 138.149 828.598 128.987 838.11 129.814C847.49 130.631 851.882 141.834 850.848 162.551L850.847 162.55ZM692.696 225.849C692.57 242.8 689.691 257.663 683.519 261.989C674.765 268.11 662.998 263.518 665.435 251.149C667.591 240.203 677.785 229.024 692.722 215.366L692.697 225.858L692.696 225.849ZM690.305 162.454C689.769 171.746 687.171 181.081 684.336 186.355C678.483 197.245 666.248 200.649 661.177 184.973C657.71 174.262 658.54 160.4 660.256 151.665C662.482 140.333 667.879 129.819 677.568 129.819C686.989 129.819 691.634 139.398 690.306 162.455L690.305 162.454ZM598.693 162.312C598.118 172.153 596.047 180.381 592.723 186.355C586.709 197.17 574.812 200.598 569.565 184.972C565.783 173.704 567.069 158.34 568.644 150.04C570.979 137.723 576.826 128.991 585.956 129.819C595.333 130.669 599.891 141.839 598.694 162.314L598.693 162.312ZM1018.53 173.807C1016.24 173.807 1015.2 175.997 1014.33 179.683C1011.33 192.501 1008.17 195.404 1004.1 195.404C999.55 195.404 995.466 189.057 994.416 176.352C993.591 166.362 993.724 147.969 994.779 129.674C994.993 125.915 993.875 122.196 982.997 118.534C978.317 116.958 971.513 114.64 968.125 122.218C958.553 143.631 954.81 160.633 953.928 167.538C953.882 167.896 953.409 167.968 953.326 167.133C952.765 161.602 951.509 151.551 951.353 130.431C951.324 126.311 950.381 122.804 945.475 119.932C942.292 118.069 932.624 114.773 929.143 118.695C926.127 121.902 922.635 130.531 919.005 140.758L914.001 154.695L914.075 123.756C914.091 120.546 911.716 119.477 911 119.284C907.776 118.416 901.424 116.967 898.717 116.967C895.391 116.967 894.577 118.691 894.577 121.202L894.05 171.154L894.06 174.036C892.22 183.422 886.252 196.163 879.763 196.163C873.266 196.163 870.21 190.837 870.21 166.492C870.21 152.291 870.67 146.115 870.896 135.845L871.267 124.354C871.218 121.192 865.321 119.599 862.576 119.01C859.817 118.416 857.422 118.186 855.551 118.284C852.902 118.423 851.028 120.034 851.028 122.248L851.042 125.694C847.631 120.725 842.146 117.268 838.495 116.266C828.663 113.56 818.405 115.959 810.665 125.994C804.514 133.968 800.807 143.001 799.358 155.978C798.292 165.465 798.639 175.085 800.535 183.221C798.245 192.401 793.992 196.163 789.335 196.163C782.574 196.163 777.673 185.935 778.242 168.245C778.618 156.609 781.13 148.443 783.877 136.631C785.046 131.595 784.096 128.958 781.711 126.432C779.522 124.115 774.86 122.931 768.157 124.388C763.383 125.427 756.558 126.542 750.312 127.4C750.312 127.4 750.689 126.007 750.998 123.549C752.622 110.665 737.517 111.71 732.697 115.824C729.821 118.282 727.862 121.179 727.118 126.39C725.939 134.659 733.216 138.558 733.216 138.558C730.827 148.677 724.977 161.917 718.935 171.482C715.699 176.607 713.223 180.405 710.029 184.442L710.002 179.94L710.37 135.849L710.743 124.479C710.707 122.166 709.25 121.293 706.22 120.187C703.54 119.21 700.372 118.532 697.087 118.296C692.939 117.996 690.439 120.035 690.505 122.447C690.518 122.902 690.518 125.698 690.518 125.698C687.106 120.728 681.62 117.272 677.97 116.27C668.139 113.564 657.88 115.962 650.141 125.998C643.992 133.972 639.964 145.163 638.833 155.882C637.761 165.873 637.966 174.363 639.415 181.514C637.852 188.677 633.357 196.166 628.275 196.166C621.779 196.166 618.081 190.84 618.081 166.495C618.081 152.293 618.541 146.118 618.767 135.848L619.138 124.357C619.089 121.195 613.192 119.602 610.447 119.012C607.575 118.397 605.086 118.17 603.192 118.3C600.68 118.473 598.912 120.559 598.912 122.113V125.696C595.501 120.727 590.016 117.27 586.365 116.268C576.533 113.563 566.331 115.999 558.535 125.996C553.452 132.515 549.336 139.741 547.228 155.739C546.616 160.362 546.346 164.691 546.38 168.738C544.352 180.229 535.4 193.472 528.076 193.472C523.789 193.472 519.708 185.767 519.708 169.347C519.708 147.473 521.168 116.332 521.416 113.33L532.46 113.164C537.076 113.117 541.256 113.218 547.403 112.927C550.486 112.782 553.457 102.524 550.275 101.253C548.832 100.679 538.638 100.175 534.597 100.097C531.199 100.025 521.739 99.3767 521.739 99.3767L522.785 76.5225C522.953 74.7029 520.413 73.7668 518.955 73.1976C515.412 71.8089 512.243 71.144 508.485 70.4266C503.296 69.4345 500.941 70.4049 500.481 74.4652C499.798 80.6272 499.428 98.6756 499.428 98.6756C495.619 98.6756 482.609 97.9853 478.8 97.9853C475.261 97.9853 471.44 112.095 476.334 112.27L498.282 112.83L498.004 157.271C494.423 174.567 481.813 183.91 481.813 183.91C484.521 172.468 478.989 163.875 469.024 156.601C465.353 153.92 458.106 148.846 449.996 143.286C449.996 143.286 454.693 138.996 458.867 130.366C461.817 124.252 461.945 117.256 454.702 115.713C442.734 113.162 432.867 121.308 429.924 130.006C427.643 136.744 428.859 141.743 433.326 146.938C433.652 147.318 434.005 147.706 434.371 148.095C431.668 152.921 427.956 159.419 424.815 164.457C416.091 178.448 409.499 189.514 404.52 189.514C400.538 189.514 400.592 178.279 400.592 167.759C400.592 158.691 401.313 145.057 401.891 130.942C402.082 126.273 399.563 123.614 395.341 121.205C392.777 119.741 387.301 116.864 384.131 116.864C379.384 116.864 365.693 117.462 352.756 152.15C351.125 156.523 347.921 164.488 347.921 164.488L348.197 122.776C348.197 121.798 347.635 120.851 346.347 120.205C344.168 119.108 338.354 116.864 333.169 116.864C330.702 116.864 329.47 117.928 329.47 120.047L329.019 185.307C329.019 190.266 329.158 196.059 329.688 198.58C330.217 201.101 331.068 203.173 332.125 204.398C333.181 205.624 334.402 206.556 336.416 206.941C338.29 207.299 348.551 208.52 349.086 204.885C349.725 200.531 349.748 195.817 355.139 178.245C363.528 150.887 374.466 137.537 379.608 132.797C380.506 131.968 381.533 131.918 381.484 133.275L379.973 166.994C378.579 201.07 385.268 207.386 394.826 207.386C402.137 207.386 412.445 200.653 423.484 183.606L441.867 155.06L452.728 164.33C461.456 172.007 464.32 179.303 462.42 186.222C460.965 191.513 455.489 196.973 445.744 191.665C442.904 190.12 441.691 188.925 438.835 187.181C437.301 186.245 434.957 185.965 433.552 186.946C429.903 189.496 427.816 192.74 426.624 196.756C425.464 200.663 429.687 202.728 434.063 204.526C437.832 206.08 445.931 207.489 451.097 207.65C471.223 208.283 487.345 198.642 498.568 173.8C500.576 195.255 509.128 207.396 523.982 207.396C533.915 207.396 543.872 195.497 548.225 183.791C549.475 188.562 551.325 192.713 553.715 196.221C565.162 213.031 587.368 209.412 598.522 195.138C601.971 190.728 602.497 189.143 602.497 189.143C604.124 202.621 615.834 207.33 622.538 207.33C630.048 207.33 637.801 204.04 643.235 192.7C643.872 193.93 644.567 195.106 645.326 196.22C656.773 213.031 678.979 209.411 690.134 195.138C690.605 194.537 691.065 193.93 691.515 193.315L691.842 202.17L681.573 210.899C664.381 225.518 651.309 236.61 650.347 249.527C649.113 265.998 663.523 272.117 674.426 272.919C686.004 273.771 695.92 267.841 702.012 259.547C707.373 252.245 710.881 236.527 710.623 221.005L710.219 198.414C716.262 191.908 723.069 183.689 729.338 174.067C736.169 163.581 743.492 149.499 747.239 138.539C747.239 138.539 753.599 138.59 760.388 138.178C762.56 138.047 763.183 138.458 762.782 139.932C762.298 141.715 754.206 170.643 761.59 189.914C766.645 203.106 778.04 207.352 784.796 207.352C792.704 207.352 800.269 201.816 804.323 193.596C804.811 194.512 805.322 195.4 805.88 196.218C817.327 213.029 839.455 209.389 850.687 195.136C853.222 191.919 854.662 189.14 854.662 189.14C857.072 203.09 868.776 207.4 875.48 207.4C882.463 207.4 889.091 204.746 894.468 192.953C894.693 198.145 895.046 202.391 895.605 203.729C895.946 204.548 897.93 205.575 899.374 206.072C905.761 208.267 912.277 207.228 914.677 206.777C916.347 206.463 917.651 205.222 917.826 202.015C918.294 193.596 918.006 179.451 920.75 168.938C925.373 151.295 929.684 144.453 931.729 141.064C932.874 139.167 934.166 138.853 934.213 140.862C934.31 144.928 934.528 156.863 936.318 172.903C937.634 184.698 939.389 191.671 940.74 193.877C944.593 200.187 949.351 200.486 953.217 200.486C955.683 200.486 960.837 199.854 960.376 195.84C960.152 193.883 960.544 181.786 965.102 164.405C968.077 153.054 973.038 142.798 974.828 139.049C975.488 137.666 975.795 138.756 975.783 138.967C975.406 146.785 974.561 172.352 977.996 186.336C982.653 205.279 996.127 207.399 1000.82 207.399C1010.84 207.399 1019.04 200.334 1021.8 181.739C1022.47 177.264 1021.48 173.809 1018.53 173.809" fill="white"/>
<path d="M118 100C109.298 100 100.791 102.581 93.5549 107.415C86.3191 112.25 80.6796 119.122 77.3493 127.162C74.019 135.202 73.1477 144.049 74.8455 152.584C76.5432 161.119 80.7338 168.959 86.8873 175.113C93.0408 181.266 100.881 185.457 109.416 187.155C117.951 188.852 126.798 187.981 134.838 184.651C142.878 181.32 149.75 175.681 154.585 168.445C159.419 161.209 162 152.702 162 144C161.987 132.335 157.347 121.151 149.098 112.902C140.849 104.653 129.665 100.013 118 100ZM118 180C110.88 180 103.92 177.889 97.9995 173.933C92.0793 169.977 87.4651 164.355 84.7403 157.777C82.0156 151.198 81.3027 143.96 82.6917 136.977C84.0808 129.993 87.5095 123.579 92.5442 118.544C97.5788 113.509 103.993 110.081 110.977 108.692C117.96 107.303 125.198 108.016 131.777 110.74C138.355 113.465 143.977 118.079 147.933 123.999C151.889 129.92 154 136.88 154 144C153.989 153.544 150.193 162.695 143.444 169.444C136.695 176.193 127.544 179.989 118 180ZM162 48H74C60.2135 48.0156 46.9962 53.4992 37.2477 63.2477C27.4992 72.9962 22.0156 86.2135 22 100V188C22.0156 201.786 27.4992 215.004 37.2477 224.752C46.9962 234.501 60.2135 239.984 74 240H162C175.786 239.984 189.004 234.501 198.752 224.752C208.501 215.004 213.984 201.786 214 188V100C213.984 86.2135 208.501 72.9962 198.752 63.2477C189.004 53.4992 175.786 48.0156 162 48ZM206 188C205.987 199.665 201.347 210.849 193.098 219.098C184.849 227.347 173.665 231.987 162 232H74C62.3345 231.987 51.1506 227.347 42.9019 219.098C34.6531 210.849 30.0132 199.665 30 188V100C30.0132 88.3345 34.6531 77.1506 42.9019 68.9019C51.1506 60.6531 62.3345 56.0132 74 56H162C173.665 56.0132 184.849 60.6531 193.098 68.9019C201.347 77.1506 205.987 88.3345 206 100V188ZM178 92C178 93.5823 177.531 95.129 176.652 96.4446C175.773 97.7602 174.523 98.7855 173.061 99.391C171.6 99.9965 169.991 100.155 168.439 99.8463C166.887 99.5376 165.462 98.7757 164.343 97.6569C163.224 96.538 162.462 95.1126 162.154 93.5607C161.845 92.0089 162.003 90.4003 162.609 88.9385C163.214 87.4767 164.24 86.2273 165.555 85.3482C166.871 84.4692 168.418 84 170 84C172.121 84.0024 174.154 84.8461 175.654 86.3458C177.154 87.8456 177.998 89.879 178 92Z" fill="white"/>
</svg>
