<svg width="911" height="331" viewBox="0 0 911 331" fill="none" xmlns="http://www.w3.org/2000/svg">
<path fill-rule="evenodd" clip-rule="evenodd" d="M402.474 184.979H402.255L388.849 130.911H372.695L359.068 184.323H358.849L346.433 130.911H329.179L349.949 209.374H367.424L380.498 155.972H380.719L394.012 209.374H411.158L432.256 130.911H415.336L402.474 184.979ZM484.892 157.454C483.351 155.438 481.246 153.868 478.574 152.731C475.898 151.592 472.474 151.026 468.301 151.026C465.367 151.026 462.365 151.78 459.285 153.276C456.213 154.78 453.683 157.178 451.703 160.477H451.377V130.911H435.77V209.374H451.377V179.597C451.377 173.812 452.324 169.654 454.231 167.122C456.137 164.593 459.213 163.335 463.465 163.335C467.197 163.335 469.799 164.485 471.264 166.794C472.729 169.103 473.465 172.607 473.465 177.288V209.374H489.067V174.435C489.067 170.917 488.758 167.714 488.137 164.82C487.508 161.925 486.429 159.47 484.892 157.454ZM549.172 196.741V167.178C549.172 163.737 548.406 160.969 546.863 158.883C545.326 156.795 543.347 155.162 540.933 153.99C538.515 152.818 535.835 152.029 532.91 151.627C529.98 151.231 527.086 151.025 524.23 151.025C521.082 151.025 517.945 151.338 514.835 151.957C511.716 152.578 508.917 153.623 506.425 155.088C503.935 156.557 501.884 158.496 500.277 160.91C498.662 163.334 497.746 166.371 497.525 170.039H513.129C513.422 166.957 514.453 164.76 516.207 163.441C517.965 162.123 520.379 161.461 523.461 161.461C524.852 161.461 526.149 161.555 527.361 161.74C528.568 161.924 529.632 162.287 530.549 162.834C531.465 163.389 532.195 164.156 532.746 165.143C533.293 166.137 533.57 167.473 533.57 169.155C533.642 170.766 533.164 171.997 532.142 172.839C531.113 173.683 529.726 174.323 527.964 174.757C526.206 175.202 524.191 175.534 521.921 175.747C519.648 175.97 517.341 176.265 514.999 176.632C512.651 176.999 510.327 177.493 508.022 178.114C505.713 178.735 503.655 179.673 501.872 180.915C500.073 182.167 498.604 183.827 497.472 185.917C496.335 188.005 495.767 190.659 495.767 193.878C495.767 196.816 496.261 199.343 497.255 201.46C498.239 203.591 499.612 205.349 501.37 206.737C503.132 208.135 505.179 209.157 507.526 209.815C509.866 210.475 512.395 210.803 515.108 210.803C518.624 210.803 522.069 210.293 525.432 209.272C528.803 208.237 531.741 206.444 534.227 203.883C534.299 204.832 534.428 205.768 534.612 206.686C534.796 207.598 535.034 208.5 535.327 209.374H551.151C550.421 208.208 549.905 206.444 549.614 204.104C549.32 201.761 549.172 199.307 549.172 196.741ZM533.57 187.395C533.57 188.274 533.48 189.452 533.293 190.916C533.113 192.381 532.617 193.822 531.813 195.252C531.006 196.682 529.754 197.912 528.077 198.932C526.391 199.959 524.011 200.479 520.931 200.479C519.689 200.479 518.48 200.362 517.308 200.145C516.134 199.928 515.111 199.541 514.228 198.991C513.353 198.44 512.654 197.694 512.142 196.741C511.63 195.786 511.372 194.614 511.372 193.225C511.372 191.76 511.63 190.549 512.142 189.596C512.654 188.649 513.333 187.862 514.177 187.237C515.017 186.61 516.007 186.12 517.142 185.749C518.279 185.38 519.429 185.093 520.603 184.87C521.845 184.653 523.097 184.468 524.337 184.323C525.587 184.182 526.776 183.991 527.911 183.774C529.048 183.553 530.106 183.28 531.099 182.948C532.087 182.62 532.912 182.167 533.572 181.577V187.395H533.57ZM578.293 135.528H562.688V152.561H553.243V163.002H562.688V196.514C562.688 199.373 563.168 201.682 564.118 203.44C565.073 205.198 566.372 206.561 568.016 207.506C569.666 208.459 571.571 209.104 573.733 209.432C575.891 209.756 578.188 209.924 580.6 209.924C582.145 209.924 583.715 209.883 585.329 209.815C586.938 209.741 588.403 209.596 589.724 209.374V197.286C588.99 197.436 588.22 197.55 587.415 197.62C586.61 197.694 585.767 197.729 584.888 197.729C582.251 197.729 580.493 197.286 579.611 196.407C578.738 195.528 578.295 193.77 578.295 191.134V163.003H589.725V152.562H578.295V135.528H578.293ZM642.797 184.489C641.772 182.696 640.414 181.19 638.731 179.979C637.047 178.772 635.118 177.803 632.961 177.065C630.797 176.338 628.582 175.717 626.313 175.202C624.114 174.69 621.956 174.212 619.833 173.772C617.708 173.333 615.817 172.838 614.169 172.29C612.523 171.739 611.189 171.024 610.161 170.145C609.133 169.266 608.626 168.129 608.626 166.737C608.626 165.569 608.913 164.635 609.499 163.934C610.087 163.243 610.802 162.709 611.645 162.34C612.489 161.977 613.415 161.74 614.444 161.631C615.469 161.52 616.424 161.461 617.301 161.461C620.086 161.461 622.504 161.998 624.559 163.055C626.606 164.121 627.745 166.151 627.957 169.155H642.797C642.504 165.639 641.608 162.727 640.102 160.419C638.606 158.112 636.715 156.265 634.448 154.87C632.177 153.481 629.594 152.491 626.696 151.901C623.801 151.315 620.819 151.026 617.747 151.026C614.667 151.026 611.661 151.299 608.737 151.852C605.798 152.397 603.161 153.352 600.825 154.706C598.473 156.061 596.595 157.911 595.161 160.255C593.731 162.601 593.016 165.605 593.016 169.267C593.016 171.763 593.532 173.867 594.559 175.585C595.577 177.308 596.938 178.735 598.618 179.874C600.306 181.007 602.231 181.925 604.391 182.62C606.551 183.319 608.77 183.921 611.036 184.436C616.61 185.604 620.95 186.776 624.063 187.948C627.176 189.118 628.731 190.882 628.731 193.225C628.731 194.614 628.403 195.762 627.745 196.682C627.087 197.602 626.259 198.33 625.272 198.881C624.278 199.432 623.18 199.834 621.977 200.086C620.766 200.346 619.61 200.479 618.51 200.479C616.975 200.479 615.489 200.288 614.067 199.928C612.633 199.559 611.372 198.99 610.272 198.221C609.172 197.452 608.27 196.465 607.577 195.252C606.886 194.045 606.532 192.604 606.532 190.916H591.698C591.848 194.725 592.706 197.895 594.286 200.42C595.852 202.947 597.864 204.979 600.325 206.52C602.778 208.057 605.585 209.157 608.737 209.815C611.88 210.475 615.106 210.803 618.399 210.803C621.622 210.803 624.792 210.492 627.909 209.873C631.02 209.248 633.786 208.166 636.204 206.627C638.626 205.09 640.579 203.057 642.087 200.529C643.583 198.002 644.333 194.869 644.333 191.133C644.332 188.495 643.822 186.282 642.797 184.489ZM673.785 130.911L644.115 209.374H661.48L667.628 191.905H696.972L702.902 209.374H720.82L691.48 130.911H673.785ZM672.136 179.05L682.355 150.253H682.576L692.467 179.05H672.136ZM774.769 160.255C772.648 157.472 769.974 155.239 766.749 153.552C763.522 151.866 759.679 151.027 755.214 151.027C751.693 151.027 748.472 151.724 745.542 153.113C742.604 154.504 740.194 156.74 738.292 159.816H738.069V152.562H723.229V229.267H738.842V202.347H739.053C740.957 205.128 743.397 207.234 746.366 208.663C749.327 210.093 752.571 210.804 756.089 210.804C760.269 210.804 763.913 209.995 767.023 208.386C770.138 206.779 772.74 204.613 774.826 201.904C776.918 199.195 778.469 196.08 779.502 192.566C780.522 189.046 781.037 185.38 781.037 181.578C781.037 177.547 780.521 173.683 779.502 169.982C778.469 166.284 776.898 163.042 774.769 160.255ZM764.777 187.839C764.332 190.038 763.578 191.956 762.519 193.605C761.456 195.253 760.062 196.597 758.337 197.621C756.62 198.641 754.476 199.16 751.913 199.16C749.419 199.16 747.304 198.64 745.542 197.621C743.782 196.598 742.374 195.254 741.31 193.605C740.249 191.957 739.482 190.039 739.001 187.839C738.526 185.64 738.292 183.405 738.292 181.14C738.292 178.792 738.507 176.521 738.944 174.324C739.389 172.127 740.137 170.181 741.202 168.5C742.259 166.812 743.653 165.437 745.378 164.375C747.099 163.316 749.237 162.787 751.808 162.787C754.292 162.787 756.406 163.316 758.124 164.375C759.843 165.438 761.257 166.836 762.356 168.553C763.452 170.276 764.237 172.235 764.713 174.436C765.193 176.633 765.426 178.872 765.426 181.141C765.427 183.405 765.215 185.64 764.777 187.839ZM841.693 169.981C840.668 166.284 839.089 163.042 836.968 160.254C834.839 157.471 832.171 155.238 828.948 153.551C825.721 151.865 821.874 151.026 817.405 151.026C813.889 151.026 810.667 151.723 807.737 153.112C804.803 154.503 802.387 156.739 800.483 159.815H800.268V152.561H785.43V229.266H801.03V202.346H801.253C803.159 205.127 805.599 207.233 808.562 208.662C811.529 210.092 814.773 210.803 818.291 210.803C822.463 210.803 826.107 209.994 829.225 208.385C832.332 206.778 834.938 204.612 837.024 201.903C839.114 199.194 840.669 196.079 841.694 192.565C842.719 189.045 843.231 185.379 843.231 181.577C843.23 177.546 842.719 173.682 841.693 169.981ZM826.969 187.839C826.531 190.038 825.78 191.956 824.719 193.605C823.653 195.253 822.262 196.597 820.539 197.621C818.82 198.641 816.676 199.16 814.113 199.16C811.621 199.16 809.496 198.64 807.738 197.621C805.976 196.598 804.57 195.254 803.504 193.605C802.449 191.957 801.674 190.039 801.195 187.839C800.722 185.64 800.484 183.405 800.484 181.14C800.484 178.792 800.711 176.521 801.146 174.324C801.585 172.127 802.335 170.181 803.396 168.5C804.46 166.812 805.855 165.437 807.574 164.375C809.291 163.316 811.435 162.787 814.002 162.787C816.492 162.787 818.598 163.316 820.318 164.375C822.043 165.438 823.449 166.836 824.548 168.553C825.655 170.276 826.437 172.235 826.915 174.436C827.395 176.633 827.628 178.872 827.628 181.141C827.629 183.405 827.406 185.64 826.969 187.839Z" fill="#3B9F39"/>
<path fill-rule="evenodd" clip-rule="evenodd" d="M182.906 50.6821C121.125 50.6821 71.0428 100.762 71.0428 162.543C71.0428 183.675 76.9078 203.439 87.0938 220.3L66.9058 280.314L128.838 260.484C144.863 269.347 163.293 274.398 182.906 274.398C244.683 274.398 294.765 224.32 294.765 162.543C294.765 100.762 244.683 50.6821 182.906 50.6821ZM182.906 256.584C163.802 256.584 146.015 250.854 131.164 241.031L95.0228 252.605L106.769 217.679C95.5108 202.175 88.8588 183.124 88.8588 162.541C88.8588 110.684 131.048 68.4961 182.906 68.4961C234.761 68.4961 276.951 110.684 276.951 162.541C276.951 214.396 234.761 256.584 182.906 256.584Z" fill="#3B9F39"/>
<path fill-rule="evenodd" clip-rule="evenodd" d="M156.67 116.274C154.858 111.907 153.47 111.759 150.671 111.626C149.711 111.58 148.67 111.536 147.531 111.536C143.925 111.536 140.186 112.598 137.933 114.903C135.191 117.708 128.335 124.278 128.335 137.768C128.335 151.26 138.161 164.297 139.53 166.127C140.903 167.955 158.694 196.046 186.374 207.515C207.979 216.464 214.394 215.667 219.323 214.589C226.495 213.023 235.501 207.741 237.786 201.341C240.071 194.937 240.071 189.448 239.386 188.308C238.7 187.163 236.872 186.48 234.13 185.105C231.388 183.734 217.905 177.101 215.392 176.188C212.878 175.274 210.554 175.553 208.621 178.227C205.953 181.92 203.387 185.715 201.262 187.965C199.594 189.731 196.91 189.977 194.602 188.996C191.567 187.703 183.024 184.726 172.549 175.387C164.399 168.121 158.895 159.145 157.295 156.399C155.695 153.657 157.154 152.02 158.387 150.528C159.793 148.825 161.09 147.602 162.461 146.003C163.832 144.401 164.598 143.548 165.512 141.716C166.426 139.888 165.811 138.001 165.125 136.628C164.437 135.254 158.948 121.766 156.67 116.274Z" fill="#3B9F39"/>
</svg>
